<svg xmlns="http://www.w3.org/2000/svg" xmlns:xlink="http://www.w3.org/1999/xlink" viewBox="0 0 512 512"><defs><linearGradient id="a" x1="267.55" x2="476" y1="256" y2="256" gradientUnits="userSpaceOnUse"><stop offset="0" stop-color="#cacfdd"/><stop offset="1" stop-color="#eef0f1"/></linearGradient><linearGradient id="b" x1="59.11" x2="267.55" y1="256" y2="256" xlink:href="#a"/><linearGradient id="c" x1="267.56" x2="267.56" y1="284.23" y2="571.94" xlink:href="#a"/></defs><g data-name="AI Brain"><path fill="url(#a)" d="M476,212.58a71.21,71.21,0,0,0-55.79-69.51c6.75-38.33-26.41-72-65-65.35A44.11,44.11,0,0,0,267.55,85V427a44.11,44.11,0,0,0,87.61,7.29,56.34,56.34,0,0,0,65-65.35,71.18,71.18,0,0,0,41-112.93A70.9,70.9,0,0,0,476,212.58Z"/><path fill="url(#b)" d="M59.11,212.58a71.2,71.2,0,0,1,55.79-69.51c-6.75-38.33,26.4-72,65-65.35A44.11,44.11,0,0,1,267.55,85V427a44.11,44.11,0,0,1-87.61,7.29,56.34,56.34,0,0,1-65-65.35A71.19,71.19,0,0,1,73.89,256,70.89,70.89,0,0,1,59.11,212.58Z"/><polygon fill="#e1830e" points="324.49 211.28 306.21 211.28 306.21 133.7 358.61 133.7 358.61 151.98 324.49 151.98 324.49 211.28"/><polygon fill="#e1830e" points="321.81 257.06 308.89 244.14 364.01 189.02 403.41 189.02 403.41 207.3 371.58 207.3 321.81 257.06"/><polygon fill="#e1830e" points="358.61 378.29 306.21 378.29 306.21 300.72 324.49 300.72 324.49 360.01 358.61 360.01 358.61 378.29"/><polygon fill="#e1830e" points="403.41 322.98 364.01 322.98 308.89 267.86 321.81 254.93 371.58 304.7 403.41 304.7 403.41 322.98"/><polygon fill="#e1830e" points="228.89 378.29 176.49 378.29 176.49 360.01 210.61 360.01 210.61 300.72 228.89 300.72 228.89 378.29"/><polygon fill="#e1830e" points="171.09 322.98 131.69 322.98 131.69 304.7 163.52 304.7 213.29 254.93 226.21 267.86 171.09 322.98"/><polygon fill="#e1830e" points="228.89 211.28 210.61 211.28 210.61 151.98 176.49 151.98 176.49 133.7 228.89 133.7 228.89 211.28"/><circle cx="164.61" cy="142.84" r="18.53" fill="#5e6175"/><polygon fill="#e1830e" points="213.29 257.06 163.52 207.3 131.69 207.3 131.69 189.02 171.09 189.02 226.21 244.14 213.29 257.06"/><path d="M476,299.42A70.94,70.94,0,0,0,461.22,256H438.13l8.6,11.16c23.78,30.85,6.86,75.68-30.47,83.92l-17.09,3.77c3.15,17.88,3.63,19.54,3.63,23.91a38.08,38.08,0,0,1-44.55,37.5l-18.11-3.1-3,18.12A25.83,25.83,0,0,1,285.83,427V351.48a97.23,97.23,0,1,0-36.56,0V427A25.82,25.82,0,0,1,198,431.28l-3-18.12-18.11,3.1a38.09,38.09,0,0,1-44.55-37.5c0-4.28.42-5.62,3.63-23.91l-17.09-3.77c-37.4-8.25-54.19-53.15-30.47-83.92L97,256H73.9a71.18,71.18,0,0,0,41,112.93,56.32,56.32,0,0,0,65,65.34A44.11,44.11,0,0,0,267.55,427a44.11,44.11,0,0,0,87.61,7.27c38.47,6.65,71.9-27,65-65.34A71.23,71.23,0,0,0,476,299.42Z" style="mix-blend-mode:multiply" fill="url(#c)"/><circle cx="119.66" cy="198.16" r="18.53" fill="#5e6175"/><circle cx="119.66" cy="313.84" r="18.53" fill="#5e6175"/><circle cx="164.61" cy="369.15" r="18.53" fill="#5e6175"/><circle cx="370.32" cy="369.15" r="18.53" fill="#5e6175" transform="rotate(-22.05 370.332 369.157)"/><circle cx="415.27" cy="313.84" r="18.53" fill="#5e6175" transform="rotate(-22.05 415.257 313.848)"/><circle cx="415.27" cy="198.16" r="18.53" fill="#5e6175" transform="rotate(-22.05 415.262 198.163)"/><circle cx="370.32" cy="142.84" r="18.53" fill="#5e6175" transform="rotate(-22.05 370.315 142.845)"/><path fill="#5e6175" d="M311.66,474.1A47.17,47.17,0,0,1,264.55,427V85a47.11,47.11,0,0,1,93-10.66c38.41-4.71,71,28.18,66,66.46C473.67,153.91,495.64,213.62,465,256c30.49,42.12,8.94,102-41.37,115.2,5,38.39-27.75,71.15-66,66.46A46.93,46.93,0,0,1,311.66,474.1Zm0-430.21A41.16,41.16,0,0,0,270.55,85V427a41.11,41.11,0,0,0,81.65,6.8l.5-3,3,.51a53.38,53.38,0,0,0,62.41-52.56,61.72,61.72,0,0,0-1.33-12.14l2.81-.62a68.19,68.19,0,0,0,39.27-108.17L457.42,256l1.41-1.83A68.19,68.19,0,0,0,419.56,146l-2.81-.62a61.35,61.35,0,0,0,1.33-12.14,53.38,53.38,0,0,0-62.41-52.56l-3,.5-.5-3A40.94,40.94,0,0,0,311.66,43.89Z"/><path fill="#5e6175" d="M223.44,474.1a46.93,46.93,0,0,1-45.89-36.44c-38.27,4.69-71-28.06-66-66.46C61.11,358,39.72,298,70.15,256,40,214.34,60.55,154.14,111.52,140.8c-4.94-38.27,27.63-71.17,66-66.46a47.11,47.11,0,0,1,93,10.66V427A47.16,47.16,0,0,1,223.44,474.1Zm-41-43.29.49,3a41.11,41.11,0,0,0,81.65-6.8V85a41.11,41.11,0,0,0-81.65-6.79l-.49,3-3-.5A53.38,53.38,0,0,0,117,133.24a62.67,62.67,0,0,0,1.33,12.14l-2.81.62A68.19,68.19,0,0,0,76.27,254.17L77.68,256l-1.41,1.83A68.19,68.19,0,0,0,115.54,366l2.81.62A62,62,0,0,0,117,378.76a53.39,53.39,0,0,0,62.41,52.56Z"/><circle cx="267.54" cy="255.99" r="80.46" fill="#f5f5f5"/><path fill="#e1830e" d="M270,287.57l12.31,0-34.43-68.27-35,68.27h12.34l6.63-12.93h31.65ZM237.5,263.69l10.33-20.14L258,263.69Z"/><rect width="10.92" height="68.27" x="298.33" y="219.33" fill="#e1830e"/><path fill="#5e6175" d="M267.54,339.46A83.47,83.47,0,1,1,351,256,83.56,83.56,0,0,1,267.54,339.46Zm0-160.93A77.47,77.47,0,1,0,345,256,77.55,77.55,0,0,0,267.54,178.53Z"/><path fill="#a9afc4" d="M113.05,441.73c-1.41-1.5-2.79-3.06-4.09-4.64l4.62-3.82c1.22,1.48,2.52,2.94,3.84,4.35Zm-10.23-12.94c-1.13-1.72-2.22-3.5-3.23-5.29l5.22-2.95c1,1.67,2,3.33,3,4.94ZM95,414.24c-.81-1.91-1.56-3.86-2.23-5.79l5.67-2c.63,1.81,1.33,3.63,2.09,5.41Zm-5-15.65a24.8,24.8,0,0,0-1.87-5l5.35-2.71a30.83,30.83,0,0,1,2.34,6.21Zm-7.23-12.11a27,27,0,0,0-4.29-3.27l3.15-5.1a32.93,32.93,0,0,1,5.24,4Zm-13-8.56c-1.7-1.17-3.37-2.43-5-3.74l3.79-4.65c1.49,1.21,3,2.37,4.61,3.46ZM57.22,367.13c-1.42-1.49-2.8-3.06-4.12-4.66l4.64-3.81c1.23,1.5,2.51,3,3.83,4.34ZM47,354.09c-1.1-1.73-2.17-3.52-3.17-5.33l5.26-2.89c.93,1.69,1.93,3.37,3,5Zm-7.66-14.62c-.8-1.89-1.55-3.83-2.23-5.77l5.66-2c.64,1.83,1.35,3.65,2.1,5.43Zm-5.15-15.68a61.39,61.39,0,0,1-1.2-6.24l6-.73s.27,2.15,1.08,5.59Z"/><rect width="21.25" height="6" x="423.13" y="74.08" fill="#5e6175" transform="rotate(-44.1 433.78 77.08)"/><rect width="21.25" height="6" x="398.32" y="59.45" fill="#5e6175" transform="rotate(-88.9 409.95 61.642)"/><rect width="6" height="21.25" x="445.2" y="90.44" fill="#5e6175" transform="rotate(-88.9 449.386 100.249)"/><path fill="#5e6175" d="M413.61 463.8a13.23 13.23 0 1112.95-16A13.23 13.23 0 01413.61 463.8zm-7-11.71a7.23 7.23 0 1011-7.61A7.22 7.22 0 00406.58 452.09zM453 409.88a10.1 10.1 0 115.49-18.6C466.82 396.67 463.14 409.88 453 409.88zm0-14.21a4.11 4.11 0 10.86 8.12h0a4.11 4.11 0 00-.86-8.12z"/></g></svg>